<mxfile host="Electron" modified="2024-05-11T10:36:23.101Z" agent="Mozilla/5.0 (Windows NT 10.0; Win64; x64) AppleWebKit/537.36 (KHTML, like Gecko) draw.io/24.2.5 Chrome/120.0.6099.109 Electron/28.1.0 Safari/537.36" etag="98zKac0yClMrHFntsdo3" version="24.2.5" type="device">
  <diagram id="R2lEEEUBdFMjLlhIrx00" name="Page-1">
    <mxGraphModel dx="2876" dy="1183" grid="0" gridSize="10" guides="1" tooltips="1" connect="1" arrows="1" fold="1" page="1" pageScale="1" pageWidth="850" pageHeight="1100" math="0" shadow="0" extFonts="Permanent Marker^https://fonts.googleapis.com/css?family=Permanent+Marker">
      <root>
        <mxCell id="0" />
        <mxCell id="1" parent="0" />
        <mxCell id="fGA4kg8TgEzMYJl1IHVl-16" style="edgeStyle=orthogonalEdgeStyle;rounded=0;orthogonalLoop=1;jettySize=auto;html=1;dashed=1;strokeColor=default;align=center;verticalAlign=middle;fontFamily=Helvetica;fontSize=11;fontColor=default;labelBackgroundColor=default;startArrow=ERone;startFill=0;endArrow=ERoneToMany;endFill=0;" parent="1" source="C-vyLk0tnHw3VtMMgP7b-13" target="f_I18fjyUg9DNFB2FGYQ-49" edge="1">
          <mxGeometry relative="1" as="geometry">
            <Array as="points">
              <mxPoint x="738" y="180" />
            </Array>
          </mxGeometry>
        </mxCell>
        <mxCell id="fGA4kg8TgEzMYJl1IHVl-90" style="edgeStyle=orthogonalEdgeStyle;rounded=0;orthogonalLoop=1;jettySize=auto;html=1;exitX=0.5;exitY=1;exitDx=0;exitDy=0;dashed=1;strokeColor=default;align=center;verticalAlign=middle;fontFamily=Helvetica;fontSize=11;fontColor=default;labelBackgroundColor=default;startArrow=ERone;startFill=0;endArrow=ERoneToMany;endFill=0;" parent="1" source="C-vyLk0tnHw3VtMMgP7b-13" target="f_I18fjyUg9DNFB2FGYQ-8" edge="1">
          <mxGeometry relative="1" as="geometry" />
        </mxCell>
        <mxCell id="C-vyLk0tnHw3VtMMgP7b-13" value="Компания" style="shape=table;startSize=30;container=1;collapsible=1;childLayout=tableLayout;fixedRows=1;rowLines=0;fontStyle=1;align=center;resizeLast=1;" parent="1" vertex="1">
          <mxGeometry x="-158.87" y="66" width="235.75" height="160" as="geometry" />
        </mxCell>
        <mxCell id="C-vyLk0tnHw3VtMMgP7b-14" value="" style="shape=partialRectangle;collapsible=0;dropTarget=0;pointerEvents=0;fillColor=none;points=[[0,0.5],[1,0.5]];portConstraint=eastwest;top=0;left=0;right=0;bottom=1;" parent="C-vyLk0tnHw3VtMMgP7b-13" vertex="1">
          <mxGeometry y="30" width="235.75" height="30" as="geometry" />
        </mxCell>
        <mxCell id="C-vyLk0tnHw3VtMMgP7b-15" value="PK" style="shape=partialRectangle;overflow=hidden;connectable=0;fillColor=none;top=0;left=0;bottom=0;right=0;fontStyle=1;" parent="C-vyLk0tnHw3VtMMgP7b-14" vertex="1">
          <mxGeometry width="30" height="30" as="geometry">
            <mxRectangle width="30" height="30" as="alternateBounds" />
          </mxGeometry>
        </mxCell>
        <mxCell id="C-vyLk0tnHw3VtMMgP7b-16" value="Код компании" style="shape=partialRectangle;overflow=hidden;connectable=0;fillColor=none;top=0;left=0;bottom=0;right=0;align=left;spacingLeft=6;fontStyle=5;" parent="C-vyLk0tnHw3VtMMgP7b-14" vertex="1">
          <mxGeometry x="30" width="205.75" height="30" as="geometry">
            <mxRectangle width="205.75" height="30" as="alternateBounds" />
          </mxGeometry>
        </mxCell>
        <mxCell id="C-vyLk0tnHw3VtMMgP7b-17" value="" style="shape=partialRectangle;collapsible=0;dropTarget=0;pointerEvents=0;fillColor=none;points=[[0,0.5],[1,0.5]];portConstraint=eastwest;top=0;left=0;right=0;bottom=0;" parent="C-vyLk0tnHw3VtMMgP7b-13" vertex="1">
          <mxGeometry y="60" width="235.75" height="30" as="geometry" />
        </mxCell>
        <mxCell id="C-vyLk0tnHw3VtMMgP7b-18" value="" style="shape=partialRectangle;overflow=hidden;connectable=0;fillColor=none;top=0;left=0;bottom=0;right=0;" parent="C-vyLk0tnHw3VtMMgP7b-17" vertex="1">
          <mxGeometry width="30" height="30" as="geometry">
            <mxRectangle width="30" height="30" as="alternateBounds" />
          </mxGeometry>
        </mxCell>
        <mxCell id="C-vyLk0tnHw3VtMMgP7b-19" value="Название компании" style="shape=partialRectangle;overflow=hidden;connectable=0;fillColor=none;top=0;left=0;bottom=0;right=0;align=left;spacingLeft=6;" parent="C-vyLk0tnHw3VtMMgP7b-17" vertex="1">
          <mxGeometry x="30" width="205.75" height="30" as="geometry">
            <mxRectangle width="205.75" height="30" as="alternateBounds" />
          </mxGeometry>
        </mxCell>
        <mxCell id="C-vyLk0tnHw3VtMMgP7b-20" value="" style="shape=partialRectangle;collapsible=0;dropTarget=0;pointerEvents=0;fillColor=none;points=[[0,0.5],[1,0.5]];portConstraint=eastwest;top=0;left=0;right=0;bottom=0;" parent="C-vyLk0tnHw3VtMMgP7b-13" vertex="1">
          <mxGeometry y="90" width="235.75" height="30" as="geometry" />
        </mxCell>
        <mxCell id="C-vyLk0tnHw3VtMMgP7b-21" value="" style="shape=partialRectangle;overflow=hidden;connectable=0;fillColor=none;top=0;left=0;bottom=0;right=0;" parent="C-vyLk0tnHw3VtMMgP7b-20" vertex="1">
          <mxGeometry width="30" height="30" as="geometry">
            <mxRectangle width="30" height="30" as="alternateBounds" />
          </mxGeometry>
        </mxCell>
        <mxCell id="C-vyLk0tnHw3VtMMgP7b-22" value="Город" style="shape=partialRectangle;overflow=hidden;connectable=0;fillColor=none;top=0;left=0;bottom=0;right=0;align=left;spacingLeft=6;" parent="C-vyLk0tnHw3VtMMgP7b-20" vertex="1">
          <mxGeometry x="30" width="205.75" height="30" as="geometry">
            <mxRectangle width="205.75" height="30" as="alternateBounds" />
          </mxGeometry>
        </mxCell>
        <mxCell id="fGA4kg8TgEzMYJl1IHVl-87" value="" style="shape=partialRectangle;collapsible=0;dropTarget=0;pointerEvents=0;fillColor=none;points=[[0,0.5],[1,0.5]];portConstraint=eastwest;top=0;left=0;right=0;bottom=0;" parent="C-vyLk0tnHw3VtMMgP7b-13" vertex="1">
          <mxGeometry y="120" width="235.75" height="30" as="geometry" />
        </mxCell>
        <mxCell id="fGA4kg8TgEzMYJl1IHVl-88" value="" style="shape=partialRectangle;overflow=hidden;connectable=0;fillColor=none;top=0;left=0;bottom=0;right=0;" parent="fGA4kg8TgEzMYJl1IHVl-87" vertex="1">
          <mxGeometry width="30" height="30" as="geometry">
            <mxRectangle width="30" height="30" as="alternateBounds" />
          </mxGeometry>
        </mxCell>
        <mxCell id="fGA4kg8TgEzMYJl1IHVl-89" value="Специализация" style="shape=partialRectangle;overflow=hidden;connectable=0;fillColor=none;top=0;left=0;bottom=0;right=0;align=left;spacingLeft=6;" parent="fGA4kg8TgEzMYJl1IHVl-87" vertex="1">
          <mxGeometry x="30" width="205.75" height="30" as="geometry">
            <mxRectangle width="205.75" height="30" as="alternateBounds" />
          </mxGeometry>
        </mxCell>
        <mxCell id="fGA4kg8TgEzMYJl1IHVl-84" style="edgeStyle=orthogonalEdgeStyle;rounded=0;orthogonalLoop=1;jettySize=auto;html=1;dashed=1;strokeColor=default;align=center;verticalAlign=middle;fontFamily=Helvetica;fontSize=11;fontColor=default;labelBackgroundColor=default;startArrow=ERone;startFill=0;endArrow=ERoneToMany;endFill=0;exitX=0;exitY=0.5;exitDx=0;exitDy=0;" parent="1" source="fGA4kg8TgEzMYJl1IHVl-35" target="fGA4kg8TgEzMYJl1IHVl-71" edge="1">
          <mxGeometry relative="1" as="geometry" />
        </mxCell>
        <mxCell id="f_I18fjyUg9DNFB2FGYQ-8" value="Товар" style="shape=table;startSize=30;container=1;collapsible=1;childLayout=tableLayout;fixedRows=1;rowLines=0;fontStyle=1;align=center;resizeLast=1;" parent="1" vertex="1">
          <mxGeometry x="-166" y="283" width="250" height="267" as="geometry" />
        </mxCell>
        <mxCell id="f_I18fjyUg9DNFB2FGYQ-9" value="" style="shape=partialRectangle;collapsible=0;dropTarget=0;pointerEvents=0;fillColor=none;points=[[0,0.5],[1,0.5]];portConstraint=eastwest;top=0;left=0;right=0;bottom=1;" parent="f_I18fjyUg9DNFB2FGYQ-8" vertex="1">
          <mxGeometry y="30" width="250" height="30" as="geometry" />
        </mxCell>
        <mxCell id="f_I18fjyUg9DNFB2FGYQ-10" value="PK" style="shape=partialRectangle;overflow=hidden;connectable=0;fillColor=none;top=0;left=0;bottom=0;right=0;fontStyle=1;" parent="f_I18fjyUg9DNFB2FGYQ-9" vertex="1">
          <mxGeometry width="30.75" height="30" as="geometry">
            <mxRectangle width="30.75" height="30" as="alternateBounds" />
          </mxGeometry>
        </mxCell>
        <mxCell id="f_I18fjyUg9DNFB2FGYQ-11" value="Код товара" style="shape=partialRectangle;overflow=hidden;connectable=0;fillColor=none;top=0;left=0;bottom=0;right=0;align=left;spacingLeft=6;fontStyle=5;" parent="f_I18fjyUg9DNFB2FGYQ-9" vertex="1">
          <mxGeometry x="30.75" width="219.25" height="30" as="geometry">
            <mxRectangle width="219.25" height="30" as="alternateBounds" />
          </mxGeometry>
        </mxCell>
        <mxCell id="f_I18fjyUg9DNFB2FGYQ-12" value="" style="shape=partialRectangle;collapsible=0;dropTarget=0;pointerEvents=0;fillColor=none;points=[[0,0.5],[1,0.5]];portConstraint=eastwest;top=0;left=0;right=0;bottom=0;" parent="f_I18fjyUg9DNFB2FGYQ-8" vertex="1">
          <mxGeometry y="60" width="250" height="31" as="geometry" />
        </mxCell>
        <mxCell id="f_I18fjyUg9DNFB2FGYQ-13" value="" style="shape=partialRectangle;overflow=hidden;connectable=0;fillColor=none;top=0;left=0;bottom=0;right=0;" parent="f_I18fjyUg9DNFB2FGYQ-12" vertex="1">
          <mxGeometry width="30.75" height="31" as="geometry">
            <mxRectangle width="30.75" height="31" as="alternateBounds" />
          </mxGeometry>
        </mxCell>
        <object label="Название товара" city="sdfsdf" id="f_I18fjyUg9DNFB2FGYQ-14">
          <mxCell style="shape=partialRectangle;overflow=hidden;connectable=0;fillColor=none;top=0;left=0;bottom=0;right=0;align=left;spacingLeft=6;" parent="f_I18fjyUg9DNFB2FGYQ-12" vertex="1">
            <mxGeometry x="30.75" width="219.25" height="31" as="geometry">
              <mxRectangle width="219.25" height="31" as="alternateBounds" />
            </mxGeometry>
          </mxCell>
        </object>
        <mxCell id="f_I18fjyUg9DNFB2FGYQ-41" value="" style="shape=partialRectangle;collapsible=0;dropTarget=0;pointerEvents=0;fillColor=none;points=[[0,0.5],[1,0.5]];portConstraint=eastwest;top=0;left=0;right=0;bottom=0;" parent="f_I18fjyUg9DNFB2FGYQ-8" vertex="1">
          <mxGeometry y="91" width="250" height="31" as="geometry" />
        </mxCell>
        <mxCell id="f_I18fjyUg9DNFB2FGYQ-42" value="" style="shape=partialRectangle;overflow=hidden;connectable=0;fillColor=none;top=0;left=0;bottom=0;right=0;" parent="f_I18fjyUg9DNFB2FGYQ-41" vertex="1">
          <mxGeometry width="30.75" height="31" as="geometry">
            <mxRectangle width="30.75" height="31" as="alternateBounds" />
          </mxGeometry>
        </mxCell>
        <object label="Срок годности" city="sdfsdf" id="f_I18fjyUg9DNFB2FGYQ-43">
          <mxCell style="shape=partialRectangle;overflow=hidden;connectable=0;fillColor=none;top=0;left=0;bottom=0;right=0;align=left;spacingLeft=6;" parent="f_I18fjyUg9DNFB2FGYQ-41" vertex="1">
            <mxGeometry x="30.75" width="219.25" height="31" as="geometry">
              <mxRectangle width="219.25" height="31" as="alternateBounds" />
            </mxGeometry>
          </mxCell>
        </object>
        <mxCell id="f_I18fjyUg9DNFB2FGYQ-44" value="" style="shape=partialRectangle;collapsible=0;dropTarget=0;pointerEvents=0;fillColor=none;points=[[0,0.5],[1,0.5]];portConstraint=eastwest;top=0;left=0;right=0;bottom=0;" parent="f_I18fjyUg9DNFB2FGYQ-8" vertex="1">
          <mxGeometry y="122" width="250" height="31" as="geometry" />
        </mxCell>
        <mxCell id="f_I18fjyUg9DNFB2FGYQ-45" value="FK" style="shape=partialRectangle;overflow=hidden;connectable=0;fillColor=none;top=0;left=0;bottom=0;right=0;" parent="f_I18fjyUg9DNFB2FGYQ-44" vertex="1">
          <mxGeometry width="30.75" height="31" as="geometry">
            <mxRectangle width="30.75" height="31" as="alternateBounds" />
          </mxGeometry>
        </mxCell>
        <object label="Код компании производителя" city="sdfsdf" id="f_I18fjyUg9DNFB2FGYQ-46">
          <mxCell style="shape=partialRectangle;overflow=hidden;connectable=0;fillColor=none;top=0;left=0;bottom=0;right=0;align=left;spacingLeft=6;" parent="f_I18fjyUg9DNFB2FGYQ-44" vertex="1">
            <mxGeometry x="30.75" width="219.25" height="31" as="geometry">
              <mxRectangle width="219.25" height="31" as="alternateBounds" />
            </mxGeometry>
          </mxCell>
        </object>
        <mxCell id="f_I18fjyUg9DNFB2FGYQ-148" value="" style="shape=partialRectangle;collapsible=0;dropTarget=0;pointerEvents=0;fillColor=none;points=[[0,0.5],[1,0.5]];portConstraint=eastwest;top=0;left=0;right=0;bottom=0;" parent="f_I18fjyUg9DNFB2FGYQ-8" vertex="1">
          <mxGeometry y="153" width="250" height="31" as="geometry" />
        </mxCell>
        <mxCell id="f_I18fjyUg9DNFB2FGYQ-149" value="" style="shape=partialRectangle;overflow=hidden;connectable=0;fillColor=none;top=0;left=0;bottom=0;right=0;" parent="f_I18fjyUg9DNFB2FGYQ-148" vertex="1">
          <mxGeometry width="30.75" height="31" as="geometry">
            <mxRectangle width="30.75" height="31" as="alternateBounds" />
          </mxGeometry>
        </mxCell>
        <object label="Наценка магазина на товар" city="sdfsdf" id="f_I18fjyUg9DNFB2FGYQ-150">
          <mxCell style="shape=partialRectangle;overflow=hidden;connectable=0;fillColor=none;top=0;left=0;bottom=0;right=0;align=left;spacingLeft=6;" parent="f_I18fjyUg9DNFB2FGYQ-148" vertex="1">
            <mxGeometry x="30.75" width="219.25" height="31" as="geometry">
              <mxRectangle width="219.25" height="31" as="alternateBounds" />
            </mxGeometry>
          </mxCell>
        </object>
        <mxCell id="fGA4kg8TgEzMYJl1IHVl-68" value="" style="shape=partialRectangle;collapsible=0;dropTarget=0;pointerEvents=0;fillColor=none;points=[[0,0.5],[1,0.5]];portConstraint=eastwest;top=0;left=0;right=0;bottom=0;" parent="f_I18fjyUg9DNFB2FGYQ-8" vertex="1">
          <mxGeometry y="184" width="250" height="31" as="geometry" />
        </mxCell>
        <mxCell id="fGA4kg8TgEzMYJl1IHVl-69" value="" style="shape=partialRectangle;overflow=hidden;connectable=0;fillColor=none;top=0;left=0;bottom=0;right=0;" parent="fGA4kg8TgEzMYJl1IHVl-68" vertex="1">
          <mxGeometry width="30.75" height="31" as="geometry">
            <mxRectangle width="30.75" height="31" as="alternateBounds" />
          </mxGeometry>
        </mxCell>
        <object label="Акутальная розничная цена" city="sdfsdf" id="fGA4kg8TgEzMYJl1IHVl-70">
          <mxCell style="shape=partialRectangle;overflow=hidden;connectable=0;fillColor=none;top=0;left=0;bottom=0;right=0;align=left;spacingLeft=6;" parent="fGA4kg8TgEzMYJl1IHVl-68" vertex="1">
            <mxGeometry x="30.75" width="219.25" height="31" as="geometry">
              <mxRectangle width="219.25" height="31" as="alternateBounds" />
            </mxGeometry>
          </mxCell>
        </object>
        <mxCell id="E8cAx2pGSvw5zw2pjkjt-13" value="" style="shape=partialRectangle;collapsible=0;dropTarget=0;pointerEvents=0;fillColor=none;points=[[0,0.5],[1,0.5]];portConstraint=eastwest;top=0;left=0;right=0;bottom=0;" parent="f_I18fjyUg9DNFB2FGYQ-8" vertex="1">
          <mxGeometry y="215" width="250" height="31" as="geometry" />
        </mxCell>
        <mxCell id="E8cAx2pGSvw5zw2pjkjt-14" value="FK" style="shape=partialRectangle;overflow=hidden;connectable=0;fillColor=none;top=0;left=0;bottom=0;right=0;" parent="E8cAx2pGSvw5zw2pjkjt-13" vertex="1">
          <mxGeometry width="30.75" height="31" as="geometry">
            <mxRectangle width="30.75" height="31" as="alternateBounds" />
          </mxGeometry>
        </mxCell>
        <object label="Упаковка" city="sdfsdf" id="E8cAx2pGSvw5zw2pjkjt-15">
          <mxCell style="shape=partialRectangle;overflow=hidden;connectable=0;fillColor=none;top=0;left=0;bottom=0;right=0;align=left;spacingLeft=6;" parent="E8cAx2pGSvw5zw2pjkjt-13" vertex="1">
            <mxGeometry x="30.75" width="219.25" height="31" as="geometry">
              <mxRectangle width="219.25" height="31" as="alternateBounds" />
            </mxGeometry>
          </mxCell>
        </object>
        <mxCell id="f_I18fjyUg9DNFB2FGYQ-49" value="Поставка" style="shape=table;startSize=30;container=1;collapsible=1;childLayout=tableLayout;fixedRows=1;rowLines=0;fontStyle=1;align=center;resizeLast=1;" parent="1" vertex="1">
          <mxGeometry x="481" y="431" width="232.25" height="169" as="geometry" />
        </mxCell>
        <mxCell id="f_I18fjyUg9DNFB2FGYQ-50" value="" style="shape=partialRectangle;collapsible=0;dropTarget=0;pointerEvents=0;fillColor=none;points=[[0,0.5],[1,0.5]];portConstraint=eastwest;top=0;left=0;right=0;bottom=1;" parent="f_I18fjyUg9DNFB2FGYQ-49" vertex="1">
          <mxGeometry y="30" width="232.25" height="37" as="geometry" />
        </mxCell>
        <mxCell id="f_I18fjyUg9DNFB2FGYQ-51" value="PK" style="shape=partialRectangle;overflow=hidden;connectable=0;fillColor=none;top=0;left=0;bottom=0;right=0;fontStyle=1;" parent="f_I18fjyUg9DNFB2FGYQ-50" vertex="1">
          <mxGeometry width="30" height="37" as="geometry">
            <mxRectangle width="30" height="37" as="alternateBounds" />
          </mxGeometry>
        </mxCell>
        <mxCell id="f_I18fjyUg9DNFB2FGYQ-52" value="Код поставки" style="shape=partialRectangle;overflow=hidden;connectable=0;fillColor=none;top=0;left=0;bottom=0;right=0;align=left;spacingLeft=6;fontStyle=5;" parent="f_I18fjyUg9DNFB2FGYQ-50" vertex="1">
          <mxGeometry x="30" width="202.25" height="37" as="geometry">
            <mxRectangle width="202.25" height="37" as="alternateBounds" />
          </mxGeometry>
        </mxCell>
        <mxCell id="f_I18fjyUg9DNFB2FGYQ-53" value="" style="shape=partialRectangle;collapsible=0;dropTarget=0;pointerEvents=0;fillColor=none;points=[[0,0.5],[1,0.5]];portConstraint=eastwest;top=0;left=0;right=0;bottom=0;" parent="f_I18fjyUg9DNFB2FGYQ-49" vertex="1">
          <mxGeometry y="67" width="232.25" height="30" as="geometry" />
        </mxCell>
        <mxCell id="f_I18fjyUg9DNFB2FGYQ-54" value="FK" style="shape=partialRectangle;overflow=hidden;connectable=0;fillColor=none;top=0;left=0;bottom=0;right=0;" parent="f_I18fjyUg9DNFB2FGYQ-53" vertex="1">
          <mxGeometry width="30" height="30" as="geometry">
            <mxRectangle width="30" height="30" as="alternateBounds" />
          </mxGeometry>
        </mxCell>
        <mxCell id="f_I18fjyUg9DNFB2FGYQ-55" value="Код компании поставщика" style="shape=partialRectangle;overflow=hidden;connectable=0;fillColor=none;top=0;left=0;bottom=0;right=0;align=left;spacingLeft=6;" parent="f_I18fjyUg9DNFB2FGYQ-53" vertex="1">
          <mxGeometry x="30" width="202.25" height="30" as="geometry">
            <mxRectangle width="202.25" height="30" as="alternateBounds" />
          </mxGeometry>
        </mxCell>
        <mxCell id="f_I18fjyUg9DNFB2FGYQ-59" value="" style="shape=partialRectangle;collapsible=0;dropTarget=0;pointerEvents=0;fillColor=none;points=[[0,0.5],[1,0.5]];portConstraint=eastwest;top=0;left=0;right=0;bottom=0;" parent="f_I18fjyUg9DNFB2FGYQ-49" vertex="1">
          <mxGeometry y="97" width="232.25" height="32" as="geometry" />
        </mxCell>
        <mxCell id="f_I18fjyUg9DNFB2FGYQ-60" value="" style="shape=partialRectangle;overflow=hidden;connectable=0;fillColor=none;top=0;left=0;bottom=0;right=0;" parent="f_I18fjyUg9DNFB2FGYQ-59" vertex="1">
          <mxGeometry width="30" height="32" as="geometry">
            <mxRectangle width="30" height="32" as="alternateBounds" />
          </mxGeometry>
        </mxCell>
        <mxCell id="f_I18fjyUg9DNFB2FGYQ-61" value="Дата" style="shape=partialRectangle;overflow=hidden;connectable=0;fillColor=none;top=0;left=0;bottom=0;right=0;align=left;spacingLeft=6;" parent="f_I18fjyUg9DNFB2FGYQ-59" vertex="1">
          <mxGeometry x="30" width="202.25" height="32" as="geometry">
            <mxRectangle width="202.25" height="32" as="alternateBounds" />
          </mxGeometry>
        </mxCell>
        <mxCell id="_huPxELkS43ipngJJ9W5-21" value="" style="shape=partialRectangle;collapsible=0;dropTarget=0;pointerEvents=0;fillColor=none;points=[[0,0.5],[1,0.5]];portConstraint=eastwest;top=0;left=0;right=0;bottom=0;" vertex="1" parent="f_I18fjyUg9DNFB2FGYQ-49">
          <mxGeometry y="129" width="232.25" height="32" as="geometry" />
        </mxCell>
        <mxCell id="_huPxELkS43ipngJJ9W5-22" value="FK" style="shape=partialRectangle;overflow=hidden;connectable=0;fillColor=none;top=0;left=0;bottom=0;right=0;" vertex="1" parent="_huPxELkS43ipngJJ9W5-21">
          <mxGeometry width="30" height="32" as="geometry">
            <mxRectangle width="30" height="32" as="alternateBounds" />
          </mxGeometry>
        </mxCell>
        <mxCell id="_huPxELkS43ipngJJ9W5-23" value="Работник" style="shape=partialRectangle;overflow=hidden;connectable=0;fillColor=none;top=0;left=0;bottom=0;right=0;align=left;spacingLeft=6;" vertex="1" parent="_huPxELkS43ipngJJ9W5-21">
          <mxGeometry x="30" width="202.25" height="32" as="geometry">
            <mxRectangle width="202.25" height="32" as="alternateBounds" />
          </mxGeometry>
        </mxCell>
        <mxCell id="f_I18fjyUg9DNFB2FGYQ-68" value="Единица измерения" style="shape=table;startSize=30;container=1;collapsible=1;childLayout=tableLayout;fixedRows=1;rowLines=0;fontStyle=1;align=center;resizeLast=1;" parent="1" vertex="1">
          <mxGeometry x="107" y="690" width="200.75" height="95.87" as="geometry">
            <mxRectangle x="45" y="431" width="120" height="30" as="alternateBounds" />
          </mxGeometry>
        </mxCell>
        <mxCell id="f_I18fjyUg9DNFB2FGYQ-69" value="" style="shape=partialRectangle;collapsible=0;dropTarget=0;pointerEvents=0;fillColor=none;points=[[0,0.5],[1,0.5]];portConstraint=eastwest;top=0;left=0;right=0;bottom=1;" parent="f_I18fjyUg9DNFB2FGYQ-68" vertex="1">
          <mxGeometry y="30" width="200.75" height="30" as="geometry" />
        </mxCell>
        <mxCell id="f_I18fjyUg9DNFB2FGYQ-70" value="PK" style="shape=partialRectangle;overflow=hidden;connectable=0;fillColor=none;top=0;left=0;bottom=0;right=0;fontStyle=1;" parent="f_I18fjyUg9DNFB2FGYQ-69" vertex="1">
          <mxGeometry width="30" height="30" as="geometry">
            <mxRectangle width="30" height="30" as="alternateBounds" />
          </mxGeometry>
        </mxCell>
        <mxCell id="f_I18fjyUg9DNFB2FGYQ-71" value="Код ЕИ" style="shape=partialRectangle;overflow=hidden;connectable=0;fillColor=none;top=0;left=0;bottom=0;right=0;align=left;spacingLeft=6;fontStyle=5;" parent="f_I18fjyUg9DNFB2FGYQ-69" vertex="1">
          <mxGeometry x="30" width="170.75" height="30" as="geometry">
            <mxRectangle width="170.75" height="30" as="alternateBounds" />
          </mxGeometry>
        </mxCell>
        <mxCell id="f_I18fjyUg9DNFB2FGYQ-72" value="" style="shape=partialRectangle;collapsible=0;dropTarget=0;pointerEvents=0;fillColor=none;points=[[0,0.5],[1,0.5]];portConstraint=eastwest;top=0;left=0;right=0;bottom=0;" parent="f_I18fjyUg9DNFB2FGYQ-68" vertex="1">
          <mxGeometry y="60" width="200.75" height="28" as="geometry" />
        </mxCell>
        <mxCell id="f_I18fjyUg9DNFB2FGYQ-73" value="" style="shape=partialRectangle;overflow=hidden;connectable=0;fillColor=none;top=0;left=0;bottom=0;right=0;" parent="f_I18fjyUg9DNFB2FGYQ-72" vertex="1">
          <mxGeometry width="30" height="28" as="geometry">
            <mxRectangle width="30" height="28" as="alternateBounds" />
          </mxGeometry>
        </mxCell>
        <object label="Наименование ЕИ" city="sdfsdf" id="f_I18fjyUg9DNFB2FGYQ-74">
          <mxCell style="shape=partialRectangle;overflow=hidden;connectable=0;fillColor=none;top=0;left=0;bottom=0;right=0;align=left;spacingLeft=6;" parent="f_I18fjyUg9DNFB2FGYQ-72" vertex="1">
            <mxGeometry x="30" width="170.75" height="28" as="geometry">
              <mxRectangle width="170.75" height="28" as="alternateBounds" />
            </mxGeometry>
          </mxCell>
        </object>
        <mxCell id="f_I18fjyUg9DNFB2FGYQ-119" style="edgeStyle=orthogonalEdgeStyle;rounded=0;orthogonalLoop=1;jettySize=auto;html=1;endArrow=ERoneToMany;endFill=0;startArrow=ERone;startFill=0;dashed=1;entryX=0.25;entryY=1;entryDx=0;entryDy=0;" parent="1" source="f_I18fjyUg9DNFB2FGYQ-68" target="fGA4kg8TgEzMYJl1IHVl-1" edge="1">
          <mxGeometry relative="1" as="geometry">
            <mxPoint x="599" y="274" as="sourcePoint" />
            <mxPoint x="520" y="175" as="targetPoint" />
          </mxGeometry>
        </mxCell>
        <mxCell id="fGA4kg8TgEzMYJl1IHVl-85" style="edgeStyle=orthogonalEdgeStyle;rounded=0;orthogonalLoop=1;jettySize=auto;html=1;dashed=1;strokeColor=default;align=center;verticalAlign=middle;fontFamily=Helvetica;fontSize=11;fontColor=default;labelBackgroundColor=default;startArrow=ERone;startFill=0;endArrow=ERoneToMany;endFill=0;" parent="1" source="f_I18fjyUg9DNFB2FGYQ-132" target="fGA4kg8TgEzMYJl1IHVl-71" edge="1">
          <mxGeometry relative="1" as="geometry" />
        </mxCell>
        <mxCell id="f_I18fjyUg9DNFB2FGYQ-132" value="Покупка" style="shape=table;startSize=30;container=1;collapsible=1;childLayout=tableLayout;fixedRows=1;rowLines=0;fontStyle=1;align=center;resizeLast=1;" parent="1" vertex="1">
          <mxGeometry x="-166" y="842" width="250" height="160.5" as="geometry">
            <mxRectangle x="45" y="431" width="120" height="30" as="alternateBounds" />
          </mxGeometry>
        </mxCell>
        <mxCell id="f_I18fjyUg9DNFB2FGYQ-133" value="" style="shape=partialRectangle;collapsible=0;dropTarget=0;pointerEvents=0;fillColor=none;points=[[0,0.5],[1,0.5]];portConstraint=eastwest;top=0;left=0;right=0;bottom=1;" parent="f_I18fjyUg9DNFB2FGYQ-132" vertex="1">
          <mxGeometry y="30" width="250" height="30" as="geometry" />
        </mxCell>
        <mxCell id="f_I18fjyUg9DNFB2FGYQ-134" value="PK" style="shape=partialRectangle;overflow=hidden;connectable=0;fillColor=none;top=0;left=0;bottom=0;right=0;fontStyle=1;" parent="f_I18fjyUg9DNFB2FGYQ-133" vertex="1">
          <mxGeometry width="30" height="30" as="geometry">
            <mxRectangle width="30" height="30" as="alternateBounds" />
          </mxGeometry>
        </mxCell>
        <mxCell id="f_I18fjyUg9DNFB2FGYQ-135" value="Номер" style="shape=partialRectangle;overflow=hidden;connectable=0;fillColor=none;top=0;left=0;bottom=0;right=0;align=left;spacingLeft=6;fontStyle=5;" parent="f_I18fjyUg9DNFB2FGYQ-133" vertex="1">
          <mxGeometry x="30" width="220" height="30" as="geometry">
            <mxRectangle width="220" height="30" as="alternateBounds" />
          </mxGeometry>
        </mxCell>
        <mxCell id="9CJksuY69nu4rz1NFT5Z-1" value="" style="shape=partialRectangle;collapsible=0;dropTarget=0;pointerEvents=0;fillColor=none;points=[[0,0.5],[1,0.5]];portConstraint=eastwest;top=0;left=0;right=0;bottom=0;" parent="f_I18fjyUg9DNFB2FGYQ-132" vertex="1">
          <mxGeometry y="60" width="250" height="31" as="geometry" />
        </mxCell>
        <mxCell id="9CJksuY69nu4rz1NFT5Z-2" value="" style="shape=partialRectangle;overflow=hidden;connectable=0;fillColor=none;top=0;left=0;bottom=0;right=0;" parent="9CJksuY69nu4rz1NFT5Z-1" vertex="1">
          <mxGeometry width="30" height="31" as="geometry">
            <mxRectangle width="30" height="31" as="alternateBounds" />
          </mxGeometry>
        </mxCell>
        <object label="Суммарная стоимость" city="sdfsdf" id="9CJksuY69nu4rz1NFT5Z-3">
          <mxCell style="shape=partialRectangle;overflow=hidden;connectable=0;fillColor=none;top=0;left=0;bottom=0;right=0;align=left;spacingLeft=6;" parent="9CJksuY69nu4rz1NFT5Z-1" vertex="1">
            <mxGeometry x="30" width="220" height="31" as="geometry">
              <mxRectangle width="220" height="31" as="alternateBounds" />
            </mxGeometry>
          </mxCell>
        </object>
        <mxCell id="E8cAx2pGSvw5zw2pjkjt-1" value="" style="shape=partialRectangle;collapsible=0;dropTarget=0;pointerEvents=0;fillColor=none;points=[[0,0.5],[1,0.5]];portConstraint=eastwest;top=0;left=0;right=0;bottom=0;" parent="f_I18fjyUg9DNFB2FGYQ-132" vertex="1">
          <mxGeometry y="91" width="250" height="31" as="geometry" />
        </mxCell>
        <mxCell id="E8cAx2pGSvw5zw2pjkjt-2" value="" style="shape=partialRectangle;overflow=hidden;connectable=0;fillColor=none;top=0;left=0;bottom=0;right=0;" parent="E8cAx2pGSvw5zw2pjkjt-1" vertex="1">
          <mxGeometry width="30" height="31" as="geometry">
            <mxRectangle width="30" height="31" as="alternateBounds" />
          </mxGeometry>
        </mxCell>
        <object label="Дата и время покупки" city="sdfsdf" id="E8cAx2pGSvw5zw2pjkjt-3">
          <mxCell style="shape=partialRectangle;overflow=hidden;connectable=0;fillColor=none;top=0;left=0;bottom=0;right=0;align=left;spacingLeft=6;" parent="E8cAx2pGSvw5zw2pjkjt-1" vertex="1">
            <mxGeometry x="30" width="220" height="31" as="geometry">
              <mxRectangle width="220" height="31" as="alternateBounds" />
            </mxGeometry>
          </mxCell>
        </object>
        <mxCell id="_huPxELkS43ipngJJ9W5-15" value="" style="shape=partialRectangle;collapsible=0;dropTarget=0;pointerEvents=0;fillColor=none;points=[[0,0.5],[1,0.5]];portConstraint=eastwest;top=0;left=0;right=0;bottom=0;" vertex="1" parent="f_I18fjyUg9DNFB2FGYQ-132">
          <mxGeometry y="122" width="250" height="31" as="geometry" />
        </mxCell>
        <mxCell id="_huPxELkS43ipngJJ9W5-16" value="FK" style="shape=partialRectangle;overflow=hidden;connectable=0;fillColor=none;top=0;left=0;bottom=0;right=0;" vertex="1" parent="_huPxELkS43ipngJJ9W5-15">
          <mxGeometry width="30" height="31" as="geometry">
            <mxRectangle width="30" height="31" as="alternateBounds" />
          </mxGeometry>
        </mxCell>
        <object label="Работник" city="sdfsdf" id="_huPxELkS43ipngJJ9W5-17">
          <mxCell style="shape=partialRectangle;overflow=hidden;connectable=0;fillColor=none;top=0;left=0;bottom=0;right=0;align=left;spacingLeft=6;" vertex="1" parent="_huPxELkS43ipngJJ9W5-15">
            <mxGeometry x="30" width="220" height="31" as="geometry">
              <mxRectangle width="220" height="31" as="alternateBounds" />
            </mxGeometry>
          </mxCell>
        </object>
        <mxCell id="fGA4kg8TgEzMYJl1IHVl-58" style="edgeStyle=orthogonalEdgeStyle;rounded=0;orthogonalLoop=1;jettySize=auto;html=1;dashed=1;strokeColor=default;align=center;verticalAlign=middle;fontFamily=Helvetica;fontSize=11;fontColor=default;labelBackgroundColor=default;startArrow=ERone;startFill=0;endArrow=ERoneToMany;endFill=0;" parent="1" source="l4-AbHs2WRIQqdB-9EEm-1" target="fGA4kg8TgEzMYJl1IHVl-41" edge="1">
          <mxGeometry relative="1" as="geometry" />
        </mxCell>
        <mxCell id="l4-AbHs2WRIQqdB-9EEm-1" value="Списание" style="shape=table;startSize=30;container=1;collapsible=1;childLayout=tableLayout;fixedRows=1;rowLines=0;fontStyle=1;align=center;resizeLast=1;" parent="1" vertex="1">
          <mxGeometry x="335.5" y="948" width="232.75" height="150" as="geometry" />
        </mxCell>
        <mxCell id="l4-AbHs2WRIQqdB-9EEm-2" value="" style="shape=partialRectangle;collapsible=0;dropTarget=0;pointerEvents=0;fillColor=none;points=[[0,0.5],[1,0.5]];portConstraint=eastwest;top=0;left=0;right=0;bottom=1;" parent="l4-AbHs2WRIQqdB-9EEm-1" vertex="1">
          <mxGeometry y="30" width="232.75" height="30" as="geometry" />
        </mxCell>
        <mxCell id="l4-AbHs2WRIQqdB-9EEm-3" value="PK" style="shape=partialRectangle;overflow=hidden;connectable=0;fillColor=none;top=0;left=0;bottom=0;right=0;fontStyle=1;" parent="l4-AbHs2WRIQqdB-9EEm-2" vertex="1">
          <mxGeometry width="30" height="30" as="geometry">
            <mxRectangle width="30" height="30" as="alternateBounds" />
          </mxGeometry>
        </mxCell>
        <mxCell id="l4-AbHs2WRIQqdB-9EEm-4" value="Код списания" style="shape=partialRectangle;overflow=hidden;connectable=0;fillColor=none;top=0;left=0;bottom=0;right=0;align=left;spacingLeft=6;fontStyle=5;" parent="l4-AbHs2WRIQqdB-9EEm-2" vertex="1">
          <mxGeometry x="30" width="202.75" height="30" as="geometry">
            <mxRectangle width="202.75" height="30" as="alternateBounds" />
          </mxGeometry>
        </mxCell>
        <mxCell id="l4-AbHs2WRIQqdB-9EEm-5" value="" style="shape=partialRectangle;collapsible=0;dropTarget=0;pointerEvents=0;fillColor=none;points=[[0,0.5],[1,0.5]];portConstraint=eastwest;top=0;left=0;right=0;bottom=0;" parent="l4-AbHs2WRIQqdB-9EEm-1" vertex="1">
          <mxGeometry y="60" width="232.75" height="30" as="geometry" />
        </mxCell>
        <mxCell id="l4-AbHs2WRIQqdB-9EEm-6" value="" style="shape=partialRectangle;overflow=hidden;connectable=0;fillColor=none;top=0;left=0;bottom=0;right=0;" parent="l4-AbHs2WRIQqdB-9EEm-5" vertex="1">
          <mxGeometry width="30" height="30" as="geometry">
            <mxRectangle width="30" height="30" as="alternateBounds" />
          </mxGeometry>
        </mxCell>
        <mxCell id="l4-AbHs2WRIQqdB-9EEm-7" value="Суммарная стоимость списания" style="shape=partialRectangle;overflow=hidden;connectable=0;fillColor=none;top=0;left=0;bottom=0;right=0;align=left;spacingLeft=6;" parent="l4-AbHs2WRIQqdB-9EEm-5" vertex="1">
          <mxGeometry x="30" width="202.75" height="30" as="geometry">
            <mxRectangle width="202.75" height="30" as="alternateBounds" />
          </mxGeometry>
        </mxCell>
        <mxCell id="l4-AbHs2WRIQqdB-9EEm-11" value="" style="shape=partialRectangle;collapsible=0;dropTarget=0;pointerEvents=0;fillColor=none;points=[[0,0.5],[1,0.5]];portConstraint=eastwest;top=0;left=0;right=0;bottom=0;" parent="l4-AbHs2WRIQqdB-9EEm-1" vertex="1">
          <mxGeometry y="90" width="232.75" height="30" as="geometry" />
        </mxCell>
        <mxCell id="l4-AbHs2WRIQqdB-9EEm-12" value="" style="shape=partialRectangle;overflow=hidden;connectable=0;fillColor=none;top=0;left=0;bottom=0;right=0;" parent="l4-AbHs2WRIQqdB-9EEm-11" vertex="1">
          <mxGeometry width="30" height="30" as="geometry">
            <mxRectangle width="30" height="30" as="alternateBounds" />
          </mxGeometry>
        </mxCell>
        <mxCell id="l4-AbHs2WRIQqdB-9EEm-13" value="Дата списания" style="shape=partialRectangle;overflow=hidden;connectable=0;fillColor=none;top=0;left=0;bottom=0;right=0;align=left;spacingLeft=6;" parent="l4-AbHs2WRIQqdB-9EEm-11" vertex="1">
          <mxGeometry x="30" width="202.75" height="30" as="geometry">
            <mxRectangle width="202.75" height="30" as="alternateBounds" />
          </mxGeometry>
        </mxCell>
        <mxCell id="_huPxELkS43ipngJJ9W5-18" value="" style="shape=partialRectangle;collapsible=0;dropTarget=0;pointerEvents=0;fillColor=none;points=[[0,0.5],[1,0.5]];portConstraint=eastwest;top=0;left=0;right=0;bottom=0;" vertex="1" parent="l4-AbHs2WRIQqdB-9EEm-1">
          <mxGeometry y="120" width="232.75" height="30" as="geometry" />
        </mxCell>
        <mxCell id="_huPxELkS43ipngJJ9W5-19" value="FK" style="shape=partialRectangle;overflow=hidden;connectable=0;fillColor=none;top=0;left=0;bottom=0;right=0;" vertex="1" parent="_huPxELkS43ipngJJ9W5-18">
          <mxGeometry width="30" height="30" as="geometry">
            <mxRectangle width="30" height="30" as="alternateBounds" />
          </mxGeometry>
        </mxCell>
        <mxCell id="_huPxELkS43ipngJJ9W5-20" value="Работник" style="shape=partialRectangle;overflow=hidden;connectable=0;fillColor=none;top=0;left=0;bottom=0;right=0;align=left;spacingLeft=6;" vertex="1" parent="_huPxELkS43ipngJJ9W5-18">
          <mxGeometry x="30" width="202.75" height="30" as="geometry">
            <mxRectangle width="202.75" height="30" as="alternateBounds" />
          </mxGeometry>
        </mxCell>
        <mxCell id="fGA4kg8TgEzMYJl1IHVl-86" style="edgeStyle=orthogonalEdgeStyle;rounded=0;orthogonalLoop=1;jettySize=auto;html=1;dashed=1;strokeColor=default;align=center;verticalAlign=middle;fontFamily=Helvetica;fontSize=11;fontColor=default;labelBackgroundColor=default;startArrow=ERone;startFill=0;endArrow=ERoneToMany;endFill=0;" parent="1" source="E8cAx2pGSvw5zw2pjkjt-16" target="f_I18fjyUg9DNFB2FGYQ-8" edge="1">
          <mxGeometry relative="1" as="geometry" />
        </mxCell>
        <mxCell id="E8cAx2pGSvw5zw2pjkjt-16" value="Упаковка" style="shape=table;startSize=30;container=1;collapsible=1;childLayout=tableLayout;fixedRows=1;rowLines=0;fontStyle=1;align=center;resizeLast=1;" parent="1" vertex="1">
          <mxGeometry x="-431" y="368.57" width="200.75" height="95.87" as="geometry">
            <mxRectangle x="45" y="431" width="120" height="30" as="alternateBounds" />
          </mxGeometry>
        </mxCell>
        <mxCell id="E8cAx2pGSvw5zw2pjkjt-17" value="" style="shape=partialRectangle;collapsible=0;dropTarget=0;pointerEvents=0;fillColor=none;points=[[0,0.5],[1,0.5]];portConstraint=eastwest;top=0;left=0;right=0;bottom=1;" parent="E8cAx2pGSvw5zw2pjkjt-16" vertex="1">
          <mxGeometry y="30" width="200.75" height="30" as="geometry" />
        </mxCell>
        <mxCell id="E8cAx2pGSvw5zw2pjkjt-18" value="PK" style="shape=partialRectangle;overflow=hidden;connectable=0;fillColor=none;top=0;left=0;bottom=0;right=0;fontStyle=1;" parent="E8cAx2pGSvw5zw2pjkjt-17" vertex="1">
          <mxGeometry width="30" height="30" as="geometry">
            <mxRectangle width="30" height="30" as="alternateBounds" />
          </mxGeometry>
        </mxCell>
        <mxCell id="E8cAx2pGSvw5zw2pjkjt-19" value="Код упаковки" style="shape=partialRectangle;overflow=hidden;connectable=0;fillColor=none;top=0;left=0;bottom=0;right=0;align=left;spacingLeft=6;fontStyle=5;" parent="E8cAx2pGSvw5zw2pjkjt-17" vertex="1">
          <mxGeometry x="30" width="170.75" height="30" as="geometry">
            <mxRectangle width="170.75" height="30" as="alternateBounds" />
          </mxGeometry>
        </mxCell>
        <mxCell id="E8cAx2pGSvw5zw2pjkjt-20" value="" style="shape=partialRectangle;collapsible=0;dropTarget=0;pointerEvents=0;fillColor=none;points=[[0,0.5],[1,0.5]];portConstraint=eastwest;top=0;left=0;right=0;bottom=0;" parent="E8cAx2pGSvw5zw2pjkjt-16" vertex="1">
          <mxGeometry y="60" width="200.75" height="28" as="geometry" />
        </mxCell>
        <mxCell id="E8cAx2pGSvw5zw2pjkjt-21" value="" style="shape=partialRectangle;overflow=hidden;connectable=0;fillColor=none;top=0;left=0;bottom=0;right=0;" parent="E8cAx2pGSvw5zw2pjkjt-20" vertex="1">
          <mxGeometry width="30" height="28" as="geometry">
            <mxRectangle width="30" height="28" as="alternateBounds" />
          </mxGeometry>
        </mxCell>
        <object label="Наименование упаковки" city="sdfsdf" id="E8cAx2pGSvw5zw2pjkjt-22">
          <mxCell style="shape=partialRectangle;overflow=hidden;connectable=0;fillColor=none;top=0;left=0;bottom=0;right=0;align=left;spacingLeft=6;" parent="E8cAx2pGSvw5zw2pjkjt-20" vertex="1">
            <mxGeometry x="30" width="170.75" height="28" as="geometry">
              <mxRectangle width="170.75" height="28" as="alternateBounds" />
            </mxGeometry>
          </mxCell>
        </object>
        <mxCell id="fGA4kg8TgEzMYJl1IHVl-1" value="Накладная" style="shape=table;startSize=30;container=1;collapsible=1;childLayout=tableLayout;fixedRows=1;rowLines=0;fontStyle=1;align=center;resizeLast=1;" parent="1" vertex="1">
          <mxGeometry x="175" y="357" width="250" height="285" as="geometry">
            <mxRectangle x="45" y="431" width="120" height="30" as="alternateBounds" />
          </mxGeometry>
        </mxCell>
        <mxCell id="fGA4kg8TgEzMYJl1IHVl-2" value="" style="shape=partialRectangle;collapsible=0;dropTarget=0;pointerEvents=0;fillColor=none;points=[[0,0.5],[1,0.5]];portConstraint=eastwest;top=0;left=0;right=0;bottom=1;" parent="fGA4kg8TgEzMYJl1IHVl-1" vertex="1">
          <mxGeometry y="30" width="250" height="30" as="geometry" />
        </mxCell>
        <mxCell id="fGA4kg8TgEzMYJl1IHVl-3" value="PK" style="shape=partialRectangle;overflow=hidden;connectable=0;fillColor=none;top=0;left=0;bottom=0;right=0;fontStyle=1;" parent="fGA4kg8TgEzMYJl1IHVl-2" vertex="1">
          <mxGeometry width="30" height="30" as="geometry">
            <mxRectangle width="30" height="30" as="alternateBounds" />
          </mxGeometry>
        </mxCell>
        <mxCell id="fGA4kg8TgEzMYJl1IHVl-4" value="Код поставки" style="shape=partialRectangle;overflow=hidden;connectable=0;fillColor=none;top=0;left=0;bottom=0;right=0;align=left;spacingLeft=6;fontStyle=5;" parent="fGA4kg8TgEzMYJl1IHVl-2" vertex="1">
          <mxGeometry x="30" width="220" height="30" as="geometry">
            <mxRectangle width="220" height="30" as="alternateBounds" />
          </mxGeometry>
        </mxCell>
        <mxCell id="fGA4kg8TgEzMYJl1IHVl-62" value="" style="shape=partialRectangle;collapsible=0;dropTarget=0;pointerEvents=0;fillColor=none;points=[[0,0.5],[1,0.5]];portConstraint=eastwest;top=0;left=0;right=0;bottom=1;" parent="fGA4kg8TgEzMYJl1IHVl-1" vertex="1">
          <mxGeometry y="60" width="250" height="30" as="geometry" />
        </mxCell>
        <mxCell id="fGA4kg8TgEzMYJl1IHVl-63" value="PK" style="shape=partialRectangle;overflow=hidden;connectable=0;fillColor=none;top=0;left=0;bottom=0;right=0;fontStyle=1;" parent="fGA4kg8TgEzMYJl1IHVl-62" vertex="1">
          <mxGeometry width="30" height="30" as="geometry">
            <mxRectangle width="30" height="30" as="alternateBounds" />
          </mxGeometry>
        </mxCell>
        <mxCell id="fGA4kg8TgEzMYJl1IHVl-64" value="Код товара" style="shape=partialRectangle;overflow=hidden;connectable=0;fillColor=none;top=0;left=0;bottom=0;right=0;align=left;spacingLeft=6;fontStyle=5;" parent="fGA4kg8TgEzMYJl1IHVl-62" vertex="1">
          <mxGeometry x="30" width="220" height="30" as="geometry">
            <mxRectangle width="220" height="30" as="alternateBounds" />
          </mxGeometry>
        </mxCell>
        <mxCell id="fGA4kg8TgEzMYJl1IHVl-13" value="" style="shape=partialRectangle;collapsible=0;dropTarget=0;pointerEvents=0;fillColor=none;points=[[0,0.5],[1,0.5]];portConstraint=eastwest;top=0;left=0;right=0;bottom=0;" parent="fGA4kg8TgEzMYJl1IHVl-1" vertex="1">
          <mxGeometry y="90" width="250" height="31" as="geometry" />
        </mxCell>
        <mxCell id="fGA4kg8TgEzMYJl1IHVl-14" value="FK" style="shape=partialRectangle;overflow=hidden;connectable=0;fillColor=none;top=0;left=0;bottom=0;right=0;" parent="fGA4kg8TgEzMYJl1IHVl-13" vertex="1">
          <mxGeometry width="30" height="31" as="geometry">
            <mxRectangle width="30" height="31" as="alternateBounds" />
          </mxGeometry>
        </mxCell>
        <object label="Код ЕИ" city="sdfsdf" id="fGA4kg8TgEzMYJl1IHVl-15">
          <mxCell style="shape=partialRectangle;overflow=hidden;connectable=0;fillColor=none;top=0;left=0;bottom=0;right=0;align=left;spacingLeft=6;" parent="fGA4kg8TgEzMYJl1IHVl-13" vertex="1">
            <mxGeometry x="30" width="220" height="31" as="geometry">
              <mxRectangle width="220" height="31" as="alternateBounds" />
            </mxGeometry>
          </mxCell>
        </object>
        <mxCell id="fGA4kg8TgEzMYJl1IHVl-26" value="" style="shape=partialRectangle;collapsible=0;dropTarget=0;pointerEvents=0;fillColor=none;points=[[0,0.5],[1,0.5]];portConstraint=eastwest;top=0;left=0;right=0;bottom=0;" parent="fGA4kg8TgEzMYJl1IHVl-1" vertex="1">
          <mxGeometry y="121" width="250" height="31" as="geometry" />
        </mxCell>
        <mxCell id="fGA4kg8TgEzMYJl1IHVl-27" value="" style="shape=partialRectangle;overflow=hidden;connectable=0;fillColor=none;top=0;left=0;bottom=0;right=0;" parent="fGA4kg8TgEzMYJl1IHVl-26" vertex="1">
          <mxGeometry width="30" height="31" as="geometry">
            <mxRectangle width="30" height="31" as="alternateBounds" />
          </mxGeometry>
        </mxCell>
        <object label="Количество единиц" city="sdfsdf" id="fGA4kg8TgEzMYJl1IHVl-28">
          <mxCell style="shape=partialRectangle;overflow=hidden;connectable=0;fillColor=none;top=0;left=0;bottom=0;right=0;align=left;spacingLeft=6;" parent="fGA4kg8TgEzMYJl1IHVl-26" vertex="1">
            <mxGeometry x="30" width="220" height="31" as="geometry">
              <mxRectangle width="220" height="31" as="alternateBounds" />
            </mxGeometry>
          </mxCell>
        </object>
        <mxCell id="fGA4kg8TgEzMYJl1IHVl-29" value="" style="shape=partialRectangle;collapsible=0;dropTarget=0;pointerEvents=0;fillColor=none;points=[[0,0.5],[1,0.5]];portConstraint=eastwest;top=0;left=0;right=0;bottom=0;" parent="fGA4kg8TgEzMYJl1IHVl-1" vertex="1">
          <mxGeometry y="152" width="250" height="31" as="geometry" />
        </mxCell>
        <mxCell id="fGA4kg8TgEzMYJl1IHVl-30" value="" style="shape=partialRectangle;overflow=hidden;connectable=0;fillColor=none;top=0;left=0;bottom=0;right=0;" parent="fGA4kg8TgEzMYJl1IHVl-29" vertex="1">
          <mxGeometry width="30" height="31" as="geometry">
            <mxRectangle width="30" height="31" as="alternateBounds" />
          </mxGeometry>
        </mxCell>
        <object label="Цена закупочная" city="sdfsdf" id="fGA4kg8TgEzMYJl1IHVl-31">
          <mxCell style="shape=partialRectangle;overflow=hidden;connectable=0;fillColor=none;top=0;left=0;bottom=0;right=0;align=left;spacingLeft=6;" parent="fGA4kg8TgEzMYJl1IHVl-29" vertex="1">
            <mxGeometry x="30" width="220" height="31" as="geometry">
              <mxRectangle width="220" height="31" as="alternateBounds" />
            </mxGeometry>
          </mxCell>
        </object>
        <mxCell id="fGA4kg8TgEzMYJl1IHVl-32" value="" style="shape=partialRectangle;collapsible=0;dropTarget=0;pointerEvents=0;fillColor=none;points=[[0,0.5],[1,0.5]];portConstraint=eastwest;top=0;left=0;right=0;bottom=0;" parent="fGA4kg8TgEzMYJl1IHVl-1" vertex="1">
          <mxGeometry y="183" width="250" height="31" as="geometry" />
        </mxCell>
        <mxCell id="fGA4kg8TgEzMYJl1IHVl-33" value="" style="shape=partialRectangle;overflow=hidden;connectable=0;fillColor=none;top=0;left=0;bottom=0;right=0;" parent="fGA4kg8TgEzMYJl1IHVl-32" vertex="1">
          <mxGeometry width="30" height="31" as="geometry">
            <mxRectangle width="30" height="31" as="alternateBounds" />
          </mxGeometry>
        </mxCell>
        <object label="Ставка НДС" city="sdfsdf" id="fGA4kg8TgEzMYJl1IHVl-34">
          <mxCell style="shape=partialRectangle;overflow=hidden;connectable=0;fillColor=none;top=0;left=0;bottom=0;right=0;align=left;spacingLeft=6;" parent="fGA4kg8TgEzMYJl1IHVl-32" vertex="1">
            <mxGeometry x="30" width="220" height="31" as="geometry">
              <mxRectangle width="220" height="31" as="alternateBounds" />
            </mxGeometry>
          </mxCell>
        </object>
        <mxCell id="fGA4kg8TgEzMYJl1IHVl-35" value="" style="shape=partialRectangle;collapsible=0;dropTarget=0;pointerEvents=0;fillColor=none;points=[[0,0.5],[1,0.5]];portConstraint=eastwest;top=0;left=0;right=0;bottom=0;" parent="fGA4kg8TgEzMYJl1IHVl-1" vertex="1">
          <mxGeometry y="214" width="250" height="31" as="geometry" />
        </mxCell>
        <mxCell id="fGA4kg8TgEzMYJl1IHVl-36" value="" style="shape=partialRectangle;overflow=hidden;connectable=0;fillColor=none;top=0;left=0;bottom=0;right=0;" parent="fGA4kg8TgEzMYJl1IHVl-35" vertex="1">
          <mxGeometry width="30" height="31" as="geometry">
            <mxRectangle width="30" height="31" as="alternateBounds" />
          </mxGeometry>
        </mxCell>
        <object label="Сумма до НДС" city="sdfsdf" id="fGA4kg8TgEzMYJl1IHVl-37">
          <mxCell style="shape=partialRectangle;overflow=hidden;connectable=0;fillColor=none;top=0;left=0;bottom=0;right=0;align=left;spacingLeft=6;" parent="fGA4kg8TgEzMYJl1IHVl-35" vertex="1">
            <mxGeometry x="30" width="220" height="31" as="geometry">
              <mxRectangle width="220" height="31" as="alternateBounds" />
            </mxGeometry>
          </mxCell>
        </object>
        <mxCell id="fGA4kg8TgEzMYJl1IHVl-38" value="" style="shape=partialRectangle;collapsible=0;dropTarget=0;pointerEvents=0;fillColor=none;points=[[0,0.5],[1,0.5]];portConstraint=eastwest;top=0;left=0;right=0;bottom=0;" parent="fGA4kg8TgEzMYJl1IHVl-1" vertex="1">
          <mxGeometry y="245" width="250" height="31" as="geometry" />
        </mxCell>
        <mxCell id="fGA4kg8TgEzMYJl1IHVl-39" value="" style="shape=partialRectangle;overflow=hidden;connectable=0;fillColor=none;top=0;left=0;bottom=0;right=0;" parent="fGA4kg8TgEzMYJl1IHVl-38" vertex="1">
          <mxGeometry width="30" height="31" as="geometry">
            <mxRectangle width="30" height="31" as="alternateBounds" />
          </mxGeometry>
        </mxCell>
        <object label="Сумма с НДС" city="sdfsdf" id="fGA4kg8TgEzMYJl1IHVl-40">
          <mxCell style="shape=partialRectangle;overflow=hidden;connectable=0;fillColor=none;top=0;left=0;bottom=0;right=0;align=left;spacingLeft=6;" parent="fGA4kg8TgEzMYJl1IHVl-38" vertex="1">
            <mxGeometry x="30" width="220" height="31" as="geometry">
              <mxRectangle width="220" height="31" as="alternateBounds" />
            </mxGeometry>
          </mxCell>
        </object>
        <mxCell id="fGA4kg8TgEzMYJl1IHVl-11" style="edgeStyle=orthogonalEdgeStyle;rounded=0;orthogonalLoop=1;jettySize=auto;html=1;exitX=1;exitY=0.5;exitDx=0;exitDy=0;startArrow=ERone;startFill=0;endArrow=ERoneToMany;endFill=0;dashed=1;" parent="1" source="f_I18fjyUg9DNFB2FGYQ-12" target="fGA4kg8TgEzMYJl1IHVl-1" edge="1">
          <mxGeometry relative="1" as="geometry">
            <mxPoint x="296" y="513.5" as="targetPoint" />
          </mxGeometry>
        </mxCell>
        <mxCell id="fGA4kg8TgEzMYJl1IHVl-12" style="edgeStyle=orthogonalEdgeStyle;rounded=0;orthogonalLoop=1;jettySize=auto;html=1;dashed=1;strokeColor=default;align=center;verticalAlign=middle;fontFamily=Helvetica;fontSize=11;fontColor=default;labelBackgroundColor=default;startArrow=ERone;startFill=0;endArrow=ERoneToMany;endFill=0;" parent="1" source="f_I18fjyUg9DNFB2FGYQ-49" target="fGA4kg8TgEzMYJl1IHVl-1" edge="1">
          <mxGeometry relative="1" as="geometry" />
        </mxCell>
        <mxCell id="_huPxELkS43ipngJJ9W5-1" style="edgeStyle=orthogonalEdgeStyle;rounded=0;orthogonalLoop=1;jettySize=auto;html=1;entryX=0.75;entryY=1;entryDx=0;entryDy=0;dashed=1;strokeColor=default;align=center;verticalAlign=middle;fontFamily=Helvetica;fontSize=11;fontColor=default;labelBackgroundColor=default;startArrow=ERone;startFill=0;endArrow=ERoneToMany;endFill=0;exitX=0.25;exitY=0;exitDx=0;exitDy=0;" edge="1" parent="1" source="fGA4kg8TgEzMYJl1IHVl-41" target="fGA4kg8TgEzMYJl1IHVl-1">
          <mxGeometry relative="1" as="geometry" />
        </mxCell>
        <mxCell id="fGA4kg8TgEzMYJl1IHVl-41" value="Списанный товар" style="shape=table;startSize=30;container=1;collapsible=1;childLayout=tableLayout;fixedRows=1;rowLines=0;fontStyle=1;align=center;resizeLast=1;" parent="1" vertex="1">
          <mxGeometry x="336" y="681" width="232.25" height="205" as="geometry" />
        </mxCell>
        <mxCell id="fGA4kg8TgEzMYJl1IHVl-42" value="" style="shape=partialRectangle;collapsible=0;dropTarget=0;pointerEvents=0;fillColor=none;points=[[0,0.5],[1,0.5]];portConstraint=eastwest;top=0;left=0;right=0;bottom=1;" parent="fGA4kg8TgEzMYJl1IHVl-41" vertex="1">
          <mxGeometry y="30" width="232.25" height="37" as="geometry" />
        </mxCell>
        <mxCell id="fGA4kg8TgEzMYJl1IHVl-43" value="FK" style="shape=partialRectangle;overflow=hidden;connectable=0;fillColor=none;top=0;left=0;bottom=0;right=0;fontStyle=1;" parent="fGA4kg8TgEzMYJl1IHVl-42" vertex="1">
          <mxGeometry width="30" height="37" as="geometry">
            <mxRectangle width="30" height="37" as="alternateBounds" />
          </mxGeometry>
        </mxCell>
        <mxCell id="fGA4kg8TgEzMYJl1IHVl-44" value="Код поставки" style="shape=partialRectangle;overflow=hidden;connectable=0;fillColor=none;top=0;left=0;bottom=0;right=0;align=left;spacingLeft=6;fontStyle=5;" parent="fGA4kg8TgEzMYJl1IHVl-42" vertex="1">
          <mxGeometry x="30" width="202.25" height="37" as="geometry">
            <mxRectangle width="202.25" height="37" as="alternateBounds" />
          </mxGeometry>
        </mxCell>
        <mxCell id="fGA4kg8TgEzMYJl1IHVl-65" value="" style="shape=partialRectangle;collapsible=0;dropTarget=0;pointerEvents=0;fillColor=none;points=[[0,0.5],[1,0.5]];portConstraint=eastwest;top=0;left=0;right=0;bottom=1;" parent="fGA4kg8TgEzMYJl1IHVl-41" vertex="1">
          <mxGeometry y="67" width="232.25" height="37" as="geometry" />
        </mxCell>
        <mxCell id="fGA4kg8TgEzMYJl1IHVl-66" value="FK" style="shape=partialRectangle;overflow=hidden;connectable=0;fillColor=none;top=0;left=0;bottom=0;right=0;fontStyle=1;" parent="fGA4kg8TgEzMYJl1IHVl-65" vertex="1">
          <mxGeometry width="30" height="37" as="geometry">
            <mxRectangle width="30" height="37" as="alternateBounds" />
          </mxGeometry>
        </mxCell>
        <mxCell id="fGA4kg8TgEzMYJl1IHVl-67" value="Код товара" style="shape=partialRectangle;overflow=hidden;connectable=0;fillColor=none;top=0;left=0;bottom=0;right=0;align=left;spacingLeft=6;fontStyle=5;" parent="fGA4kg8TgEzMYJl1IHVl-65" vertex="1">
          <mxGeometry x="30" width="202.25" height="37" as="geometry">
            <mxRectangle width="202.25" height="37" as="alternateBounds" />
          </mxGeometry>
        </mxCell>
        <mxCell id="fGA4kg8TgEzMYJl1IHVl-59" value="" style="shape=partialRectangle;collapsible=0;dropTarget=0;pointerEvents=0;fillColor=none;points=[[0,0.5],[1,0.5]];portConstraint=eastwest;top=0;left=0;right=0;bottom=1;" parent="fGA4kg8TgEzMYJl1IHVl-41" vertex="1">
          <mxGeometry y="104" width="232.25" height="37" as="geometry" />
        </mxCell>
        <mxCell id="fGA4kg8TgEzMYJl1IHVl-60" value="FK" style="shape=partialRectangle;overflow=hidden;connectable=0;fillColor=none;top=0;left=0;bottom=0;right=0;fontStyle=1;" parent="fGA4kg8TgEzMYJl1IHVl-59" vertex="1">
          <mxGeometry width="30" height="37" as="geometry">
            <mxRectangle width="30" height="37" as="alternateBounds" />
          </mxGeometry>
        </mxCell>
        <mxCell id="fGA4kg8TgEzMYJl1IHVl-61" value="Код списания" style="shape=partialRectangle;overflow=hidden;connectable=0;fillColor=none;top=0;left=0;bottom=0;right=0;align=left;spacingLeft=6;fontStyle=5;" parent="fGA4kg8TgEzMYJl1IHVl-59" vertex="1">
          <mxGeometry x="30" width="202.25" height="37" as="geometry">
            <mxRectangle width="202.25" height="37" as="alternateBounds" />
          </mxGeometry>
        </mxCell>
        <mxCell id="fGA4kg8TgEzMYJl1IHVl-51" value="" style="shape=partialRectangle;collapsible=0;dropTarget=0;pointerEvents=0;fillColor=none;points=[[0,0.5],[1,0.5]];portConstraint=eastwest;top=0;left=0;right=0;bottom=0;" parent="fGA4kg8TgEzMYJl1IHVl-41" vertex="1">
          <mxGeometry y="141" width="232.25" height="32" as="geometry" />
        </mxCell>
        <mxCell id="fGA4kg8TgEzMYJl1IHVl-52" value="" style="shape=partialRectangle;overflow=hidden;connectable=0;fillColor=none;top=0;left=0;bottom=0;right=0;" parent="fGA4kg8TgEzMYJl1IHVl-51" vertex="1">
          <mxGeometry width="30" height="32" as="geometry">
            <mxRectangle width="30" height="32" as="alternateBounds" />
          </mxGeometry>
        </mxCell>
        <mxCell id="fGA4kg8TgEzMYJl1IHVl-53" value="Количество единиц" style="shape=partialRectangle;overflow=hidden;connectable=0;fillColor=none;top=0;left=0;bottom=0;right=0;align=left;spacingLeft=6;" parent="fGA4kg8TgEzMYJl1IHVl-51" vertex="1">
          <mxGeometry x="30" width="202.25" height="32" as="geometry">
            <mxRectangle width="202.25" height="32" as="alternateBounds" />
          </mxGeometry>
        </mxCell>
        <mxCell id="fGA4kg8TgEzMYJl1IHVl-54" value="" style="shape=partialRectangle;collapsible=0;dropTarget=0;pointerEvents=0;fillColor=none;points=[[0,0.5],[1,0.5]];portConstraint=eastwest;top=0;left=0;right=0;bottom=0;" parent="fGA4kg8TgEzMYJl1IHVl-41" vertex="1">
          <mxGeometry y="173" width="232.25" height="32" as="geometry" />
        </mxCell>
        <mxCell id="fGA4kg8TgEzMYJl1IHVl-55" value="" style="shape=partialRectangle;overflow=hidden;connectable=0;fillColor=none;top=0;left=0;bottom=0;right=0;" parent="fGA4kg8TgEzMYJl1IHVl-54" vertex="1">
          <mxGeometry width="30" height="32" as="geometry">
            <mxRectangle width="30" height="32" as="alternateBounds" />
          </mxGeometry>
        </mxCell>
        <mxCell id="fGA4kg8TgEzMYJl1IHVl-56" value="Стоимость списания" style="shape=partialRectangle;overflow=hidden;connectable=0;fillColor=none;top=0;left=0;bottom=0;right=0;align=left;spacingLeft=6;" parent="fGA4kg8TgEzMYJl1IHVl-54" vertex="1">
          <mxGeometry x="30" width="202.25" height="32" as="geometry">
            <mxRectangle width="202.25" height="32" as="alternateBounds" />
          </mxGeometry>
        </mxCell>
        <mxCell id="YDKqio4aXj_l3_JzuRN5-1" value="Характеристика" style="shape=table;startSize=30;container=1;collapsible=1;childLayout=tableLayout;fixedRows=1;rowLines=0;fontStyle=1;align=center;resizeLast=1;" parent="1" vertex="1">
          <mxGeometry x="-437.25" y="769" width="200.75" height="107" as="geometry">
            <mxRectangle x="-536" y="595" width="120" height="30" as="alternateBounds" />
          </mxGeometry>
        </mxCell>
        <mxCell id="YDKqio4aXj_l3_JzuRN5-2" value="" style="shape=partialRectangle;collapsible=0;dropTarget=0;pointerEvents=0;fillColor=none;points=[[0,0.5],[1,0.5]];portConstraint=eastwest;top=0;left=0;right=0;bottom=1;" parent="YDKqio4aXj_l3_JzuRN5-1" vertex="1">
          <mxGeometry y="30" width="200.75" height="30" as="geometry" />
        </mxCell>
        <mxCell id="YDKqio4aXj_l3_JzuRN5-3" value="PK" style="shape=partialRectangle;overflow=hidden;connectable=0;fillColor=none;top=0;left=0;bottom=0;right=0;fontStyle=1;" parent="YDKqio4aXj_l3_JzuRN5-2" vertex="1">
          <mxGeometry width="30" height="30" as="geometry">
            <mxRectangle width="30" height="30" as="alternateBounds" />
          </mxGeometry>
        </mxCell>
        <mxCell id="YDKqio4aXj_l3_JzuRN5-4" value="Код характеристики" style="shape=partialRectangle;overflow=hidden;connectable=0;fillColor=none;top=0;left=0;bottom=0;right=0;align=left;spacingLeft=6;fontStyle=5;" parent="YDKqio4aXj_l3_JzuRN5-2" vertex="1">
          <mxGeometry x="30" width="170.75" height="30" as="geometry">
            <mxRectangle width="170.75" height="30" as="alternateBounds" />
          </mxGeometry>
        </mxCell>
        <mxCell id="YDKqio4aXj_l3_JzuRN5-5" value="" style="shape=partialRectangle;collapsible=0;dropTarget=0;pointerEvents=0;fillColor=none;points=[[0,0.5],[1,0.5]];portConstraint=eastwest;top=0;left=0;right=0;bottom=0;" parent="YDKqio4aXj_l3_JzuRN5-1" vertex="1">
          <mxGeometry y="60" width="200.75" height="28" as="geometry" />
        </mxCell>
        <mxCell id="YDKqio4aXj_l3_JzuRN5-6" value="" style="shape=partialRectangle;overflow=hidden;connectable=0;fillColor=none;top=0;left=0;bottom=0;right=0;" parent="YDKqio4aXj_l3_JzuRN5-5" vertex="1">
          <mxGeometry width="30" height="28" as="geometry">
            <mxRectangle width="30" height="28" as="alternateBounds" />
          </mxGeometry>
        </mxCell>
        <object label="Название характеристики" city="sdfsdf" id="YDKqio4aXj_l3_JzuRN5-7">
          <mxCell style="shape=partialRectangle;overflow=hidden;connectable=0;fillColor=none;top=0;left=0;bottom=0;right=0;align=left;spacingLeft=6;" parent="YDKqio4aXj_l3_JzuRN5-5" vertex="1">
            <mxGeometry x="30" width="170.75" height="28" as="geometry">
              <mxRectangle width="170.75" height="28" as="alternateBounds" />
            </mxGeometry>
          </mxCell>
        </object>
        <mxCell id="YDKqio4aXj_l3_JzuRN5-24" value="Характеристика товара" style="shape=table;startSize=30;container=1;collapsible=1;childLayout=tableLayout;fixedRows=1;rowLines=0;fontStyle=1;align=center;resizeLast=1;" parent="1" vertex="1">
          <mxGeometry x="-453" y="536" width="232.25" height="142" as="geometry" />
        </mxCell>
        <mxCell id="YDKqio4aXj_l3_JzuRN5-25" value="" style="shape=partialRectangle;collapsible=0;dropTarget=0;pointerEvents=0;fillColor=none;points=[[0,0.5],[1,0.5]];portConstraint=eastwest;top=0;left=0;right=0;bottom=1;" parent="YDKqio4aXj_l3_JzuRN5-24" vertex="1">
          <mxGeometry y="30" width="232.25" height="37" as="geometry" />
        </mxCell>
        <mxCell id="YDKqio4aXj_l3_JzuRN5-26" value="FK" style="shape=partialRectangle;overflow=hidden;connectable=0;fillColor=none;top=0;left=0;bottom=0;right=0;fontStyle=1;" parent="YDKqio4aXj_l3_JzuRN5-25" vertex="1">
          <mxGeometry width="30" height="37" as="geometry">
            <mxRectangle width="30" height="37" as="alternateBounds" />
          </mxGeometry>
        </mxCell>
        <mxCell id="YDKqio4aXj_l3_JzuRN5-27" value="Код характеристики" style="shape=partialRectangle;overflow=hidden;connectable=0;fillColor=none;top=0;left=0;bottom=0;right=0;align=left;spacingLeft=6;fontStyle=5;" parent="YDKqio4aXj_l3_JzuRN5-25" vertex="1">
          <mxGeometry x="30" width="202.25" height="37" as="geometry">
            <mxRectangle width="202.25" height="37" as="alternateBounds" />
          </mxGeometry>
        </mxCell>
        <mxCell id="YDKqio4aXj_l3_JzuRN5-28" value="" style="shape=partialRectangle;collapsible=0;dropTarget=0;pointerEvents=0;fillColor=none;points=[[0,0.5],[1,0.5]];portConstraint=eastwest;top=0;left=0;right=0;bottom=1;" parent="YDKqio4aXj_l3_JzuRN5-24" vertex="1">
          <mxGeometry y="67" width="232.25" height="37" as="geometry" />
        </mxCell>
        <mxCell id="YDKqio4aXj_l3_JzuRN5-29" value="FK" style="shape=partialRectangle;overflow=hidden;connectable=0;fillColor=none;top=0;left=0;bottom=0;right=0;fontStyle=1;" parent="YDKqio4aXj_l3_JzuRN5-28" vertex="1">
          <mxGeometry width="30" height="37" as="geometry">
            <mxRectangle width="30" height="37" as="alternateBounds" />
          </mxGeometry>
        </mxCell>
        <mxCell id="YDKqio4aXj_l3_JzuRN5-30" value="Код товара" style="shape=partialRectangle;overflow=hidden;connectable=0;fillColor=none;top=0;left=0;bottom=0;right=0;align=left;spacingLeft=6;fontStyle=5;" parent="YDKqio4aXj_l3_JzuRN5-28" vertex="1">
          <mxGeometry x="30" width="202.25" height="37" as="geometry">
            <mxRectangle width="202.25" height="37" as="alternateBounds" />
          </mxGeometry>
        </mxCell>
        <mxCell id="YDKqio4aXj_l3_JzuRN5-37" value="" style="shape=partialRectangle;collapsible=0;dropTarget=0;pointerEvents=0;fillColor=none;points=[[0,0.5],[1,0.5]];portConstraint=eastwest;top=0;left=0;right=0;bottom=0;" parent="YDKqio4aXj_l3_JzuRN5-24" vertex="1">
          <mxGeometry y="104" width="232.25" height="32" as="geometry" />
        </mxCell>
        <mxCell id="YDKqio4aXj_l3_JzuRN5-38" value="" style="shape=partialRectangle;overflow=hidden;connectable=0;fillColor=none;top=0;left=0;bottom=0;right=0;" parent="YDKqio4aXj_l3_JzuRN5-37" vertex="1">
          <mxGeometry width="30" height="32" as="geometry">
            <mxRectangle width="30" height="32" as="alternateBounds" />
          </mxGeometry>
        </mxCell>
        <mxCell id="YDKqio4aXj_l3_JzuRN5-39" value="Значение характеристики" style="shape=partialRectangle;overflow=hidden;connectable=0;fillColor=none;top=0;left=0;bottom=0;right=0;align=left;spacingLeft=6;" parent="YDKqio4aXj_l3_JzuRN5-37" vertex="1">
          <mxGeometry x="30" width="202.25" height="32" as="geometry">
            <mxRectangle width="202.25" height="32" as="alternateBounds" />
          </mxGeometry>
        </mxCell>
        <mxCell id="YDKqio4aXj_l3_JzuRN5-40" style="edgeStyle=orthogonalEdgeStyle;rounded=0;orthogonalLoop=1;jettySize=auto;html=1;dashed=1;strokeColor=default;align=center;verticalAlign=middle;fontFamily=Helvetica;fontSize=11;fontColor=default;labelBackgroundColor=default;startArrow=ERone;startFill=0;endArrow=ERoneToMany;endFill=0;" parent="1" source="YDKqio4aXj_l3_JzuRN5-1" target="YDKqio4aXj_l3_JzuRN5-24" edge="1">
          <mxGeometry relative="1" as="geometry">
            <mxPoint x="-199" y="438" as="sourcePoint" />
            <mxPoint x="-144" y="454" as="targetPoint" />
          </mxGeometry>
        </mxCell>
        <mxCell id="YDKqio4aXj_l3_JzuRN5-41" style="edgeStyle=orthogonalEdgeStyle;rounded=0;orthogonalLoop=1;jettySize=auto;html=1;dashed=1;strokeColor=default;align=center;verticalAlign=middle;fontFamily=Helvetica;fontSize=11;fontColor=default;labelBackgroundColor=default;startArrow=ERone;startFill=0;endArrow=ERoneToMany;endFill=0;" parent="1" source="E8cAx2pGSvw5zw2pjkjt-13" target="YDKqio4aXj_l3_JzuRN5-24" edge="1">
          <mxGeometry relative="1" as="geometry">
            <mxPoint x="-11" y="638.5" as="sourcePoint" />
            <mxPoint x="9" y="524" as="targetPoint" />
          </mxGeometry>
        </mxCell>
        <mxCell id="_huPxELkS43ipngJJ9W5-12" style="edgeStyle=orthogonalEdgeStyle;rounded=0;orthogonalLoop=1;jettySize=auto;html=1;dashed=1;strokeColor=default;align=center;verticalAlign=middle;fontFamily=Helvetica;fontSize=11;fontColor=default;labelBackgroundColor=default;startArrow=ERone;startFill=0;endArrow=ERoneToMany;endFill=0;" edge="1" parent="1" source="_huPxELkS43ipngJJ9W5-2" target="f_I18fjyUg9DNFB2FGYQ-132">
          <mxGeometry relative="1" as="geometry" />
        </mxCell>
        <mxCell id="_huPxELkS43ipngJJ9W5-13" style="edgeStyle=orthogonalEdgeStyle;rounded=0;orthogonalLoop=1;jettySize=auto;html=1;dashed=1;strokeColor=default;align=center;verticalAlign=middle;fontFamily=Helvetica;fontSize=11;fontColor=default;labelBackgroundColor=default;startArrow=ERone;startFill=0;endArrow=ERoneToMany;endFill=0;" edge="1" parent="1" source="_huPxELkS43ipngJJ9W5-2" target="l4-AbHs2WRIQqdB-9EEm-1">
          <mxGeometry relative="1" as="geometry" />
        </mxCell>
        <mxCell id="_huPxELkS43ipngJJ9W5-2" value="Работник" style="shape=table;startSize=30;container=1;collapsible=1;childLayout=tableLayout;fixedRows=1;rowLines=0;fontStyle=1;align=center;resizeLast=1;" vertex="1" parent="1">
          <mxGeometry x="-155.87" y="1073" width="232.75" height="120" as="geometry" />
        </mxCell>
        <mxCell id="_huPxELkS43ipngJJ9W5-3" value="" style="shape=partialRectangle;collapsible=0;dropTarget=0;pointerEvents=0;fillColor=none;points=[[0,0.5],[1,0.5]];portConstraint=eastwest;top=0;left=0;right=0;bottom=1;" vertex="1" parent="_huPxELkS43ipngJJ9W5-2">
          <mxGeometry y="30" width="232.75" height="30" as="geometry" />
        </mxCell>
        <mxCell id="_huPxELkS43ipngJJ9W5-4" value="PK" style="shape=partialRectangle;overflow=hidden;connectable=0;fillColor=none;top=0;left=0;bottom=0;right=0;fontStyle=1;" vertex="1" parent="_huPxELkS43ipngJJ9W5-3">
          <mxGeometry width="30" height="30" as="geometry">
            <mxRectangle width="30" height="30" as="alternateBounds" />
          </mxGeometry>
        </mxCell>
        <mxCell id="_huPxELkS43ipngJJ9W5-5" value="Код работника" style="shape=partialRectangle;overflow=hidden;connectable=0;fillColor=none;top=0;left=0;bottom=0;right=0;align=left;spacingLeft=6;fontStyle=5;" vertex="1" parent="_huPxELkS43ipngJJ9W5-3">
          <mxGeometry x="30" width="202.75" height="30" as="geometry">
            <mxRectangle width="202.75" height="30" as="alternateBounds" />
          </mxGeometry>
        </mxCell>
        <mxCell id="_huPxELkS43ipngJJ9W5-6" value="" style="shape=partialRectangle;collapsible=0;dropTarget=0;pointerEvents=0;fillColor=none;points=[[0,0.5],[1,0.5]];portConstraint=eastwest;top=0;left=0;right=0;bottom=0;" vertex="1" parent="_huPxELkS43ipngJJ9W5-2">
          <mxGeometry y="60" width="232.75" height="30" as="geometry" />
        </mxCell>
        <mxCell id="_huPxELkS43ipngJJ9W5-7" value="" style="shape=partialRectangle;overflow=hidden;connectable=0;fillColor=none;top=0;left=0;bottom=0;right=0;" vertex="1" parent="_huPxELkS43ipngJJ9W5-6">
          <mxGeometry width="30" height="30" as="geometry">
            <mxRectangle width="30" height="30" as="alternateBounds" />
          </mxGeometry>
        </mxCell>
        <mxCell id="_huPxELkS43ipngJJ9W5-8" value="ФИО" style="shape=partialRectangle;overflow=hidden;connectable=0;fillColor=none;top=0;left=0;bottom=0;right=0;align=left;spacingLeft=6;" vertex="1" parent="_huPxELkS43ipngJJ9W5-6">
          <mxGeometry x="30" width="202.75" height="30" as="geometry">
            <mxRectangle width="202.75" height="30" as="alternateBounds" />
          </mxGeometry>
        </mxCell>
        <mxCell id="_huPxELkS43ipngJJ9W5-9" value="" style="shape=partialRectangle;collapsible=0;dropTarget=0;pointerEvents=0;fillColor=none;points=[[0,0.5],[1,0.5]];portConstraint=eastwest;top=0;left=0;right=0;bottom=0;" vertex="1" parent="_huPxELkS43ipngJJ9W5-2">
          <mxGeometry y="90" width="232.75" height="30" as="geometry" />
        </mxCell>
        <mxCell id="_huPxELkS43ipngJJ9W5-10" value="" style="shape=partialRectangle;overflow=hidden;connectable=0;fillColor=none;top=0;left=0;bottom=0;right=0;" vertex="1" parent="_huPxELkS43ipngJJ9W5-9">
          <mxGeometry width="30" height="30" as="geometry">
            <mxRectangle width="30" height="30" as="alternateBounds" />
          </mxGeometry>
        </mxCell>
        <mxCell id="_huPxELkS43ipngJJ9W5-11" value="Должность" style="shape=partialRectangle;overflow=hidden;connectable=0;fillColor=none;top=0;left=0;bottom=0;right=0;align=left;spacingLeft=6;" vertex="1" parent="_huPxELkS43ipngJJ9W5-9">
          <mxGeometry x="30" width="202.75" height="30" as="geometry">
            <mxRectangle width="202.75" height="30" as="alternateBounds" />
          </mxGeometry>
        </mxCell>
        <mxCell id="_huPxELkS43ipngJJ9W5-14" style="edgeStyle=orthogonalEdgeStyle;rounded=0;orthogonalLoop=1;jettySize=auto;html=1;exitX=1;exitY=0.5;exitDx=0;exitDy=0;dashed=1;strokeColor=default;align=center;verticalAlign=middle;fontFamily=Helvetica;fontSize=11;fontColor=default;labelBackgroundColor=default;startArrow=ERone;startFill=0;endArrow=ERoneToMany;endFill=0;" edge="1" parent="1" source="_huPxELkS43ipngJJ9W5-9" target="f_I18fjyUg9DNFB2FGYQ-49">
          <mxGeometry relative="1" as="geometry" />
        </mxCell>
        <mxCell id="fGA4kg8TgEzMYJl1IHVl-71" value="Товар в покупке" style="shape=table;startSize=30;container=1;collapsible=1;childLayout=tableLayout;fixedRows=1;rowLines=0;fontStyle=1;align=center;resizeLast=1;" parent="1" vertex="1">
          <mxGeometry x="-166" y="614" width="250" height="187" as="geometry">
            <mxRectangle x="45" y="431" width="120" height="30" as="alternateBounds" />
          </mxGeometry>
        </mxCell>
        <mxCell id="fGA4kg8TgEzMYJl1IHVl-72" value="" style="shape=partialRectangle;collapsible=0;dropTarget=0;pointerEvents=0;fillColor=none;points=[[0,0.5],[1,0.5]];portConstraint=eastwest;top=0;left=0;right=0;bottom=1;" parent="fGA4kg8TgEzMYJl1IHVl-71" vertex="1">
          <mxGeometry y="30" width="250" height="30" as="geometry" />
        </mxCell>
        <mxCell id="fGA4kg8TgEzMYJl1IHVl-73" value="FK" style="shape=partialRectangle;overflow=hidden;connectable=0;fillColor=none;top=0;left=0;bottom=0;right=0;fontStyle=1;" parent="fGA4kg8TgEzMYJl1IHVl-72" vertex="1">
          <mxGeometry width="30" height="30" as="geometry">
            <mxRectangle width="30" height="30" as="alternateBounds" />
          </mxGeometry>
        </mxCell>
        <mxCell id="fGA4kg8TgEzMYJl1IHVl-74" value="Код поставки" style="shape=partialRectangle;overflow=hidden;connectable=0;fillColor=none;top=0;left=0;bottom=0;right=0;align=left;spacingLeft=6;fontStyle=5;" parent="fGA4kg8TgEzMYJl1IHVl-72" vertex="1">
          <mxGeometry x="30" width="220" height="30" as="geometry">
            <mxRectangle width="220" height="30" as="alternateBounds" />
          </mxGeometry>
        </mxCell>
        <mxCell id="_huPxELkS43ipngJJ9W5-24" value="" style="shape=partialRectangle;collapsible=0;dropTarget=0;pointerEvents=0;fillColor=none;points=[[0,0.5],[1,0.5]];portConstraint=eastwest;top=0;left=0;right=0;bottom=1;" vertex="1" parent="fGA4kg8TgEzMYJl1IHVl-71">
          <mxGeometry y="60" width="250" height="30" as="geometry" />
        </mxCell>
        <mxCell id="_huPxELkS43ipngJJ9W5-25" value="FK" style="shape=partialRectangle;overflow=hidden;connectable=0;fillColor=none;top=0;left=0;bottom=0;right=0;fontStyle=1;" vertex="1" parent="_huPxELkS43ipngJJ9W5-24">
          <mxGeometry width="30" height="30" as="geometry">
            <mxRectangle width="30" height="30" as="alternateBounds" />
          </mxGeometry>
        </mxCell>
        <mxCell id="_huPxELkS43ipngJJ9W5-26" value="Код товара" style="shape=partialRectangle;overflow=hidden;connectable=0;fillColor=none;top=0;left=0;bottom=0;right=0;align=left;spacingLeft=6;fontStyle=5;" vertex="1" parent="_huPxELkS43ipngJJ9W5-24">
          <mxGeometry x="30" width="220" height="30" as="geometry">
            <mxRectangle width="220" height="30" as="alternateBounds" />
          </mxGeometry>
        </mxCell>
        <mxCell id="fGA4kg8TgEzMYJl1IHVl-81" value="" style="shape=partialRectangle;collapsible=0;dropTarget=0;pointerEvents=0;fillColor=none;points=[[0,0.5],[1,0.5]];portConstraint=eastwest;top=0;left=0;right=0;bottom=1;" parent="fGA4kg8TgEzMYJl1IHVl-71" vertex="1">
          <mxGeometry y="90" width="250" height="30" as="geometry" />
        </mxCell>
        <mxCell id="fGA4kg8TgEzMYJl1IHVl-82" value="FK" style="shape=partialRectangle;overflow=hidden;connectable=0;fillColor=none;top=0;left=0;bottom=0;right=0;fontStyle=1;" parent="fGA4kg8TgEzMYJl1IHVl-81" vertex="1">
          <mxGeometry width="30" height="30" as="geometry">
            <mxRectangle width="30" height="30" as="alternateBounds" />
          </mxGeometry>
        </mxCell>
        <mxCell id="fGA4kg8TgEzMYJl1IHVl-83" value="Покупка" style="shape=partialRectangle;overflow=hidden;connectable=0;fillColor=none;top=0;left=0;bottom=0;right=0;align=left;spacingLeft=6;fontStyle=5;" parent="fGA4kg8TgEzMYJl1IHVl-81" vertex="1">
          <mxGeometry x="30" width="220" height="30" as="geometry">
            <mxRectangle width="220" height="30" as="alternateBounds" />
          </mxGeometry>
        </mxCell>
        <mxCell id="fGA4kg8TgEzMYJl1IHVl-75" value="" style="shape=partialRectangle;collapsible=0;dropTarget=0;pointerEvents=0;fillColor=none;points=[[0,0.5],[1,0.5]];portConstraint=eastwest;top=0;left=0;right=0;bottom=0;" parent="fGA4kg8TgEzMYJl1IHVl-71" vertex="1">
          <mxGeometry y="120" width="250" height="31" as="geometry" />
        </mxCell>
        <mxCell id="fGA4kg8TgEzMYJl1IHVl-76" value="" style="shape=partialRectangle;overflow=hidden;connectable=0;fillColor=none;top=0;left=0;bottom=0;right=0;" parent="fGA4kg8TgEzMYJl1IHVl-75" vertex="1">
          <mxGeometry width="30" height="31" as="geometry">
            <mxRectangle width="30" height="31" as="alternateBounds" />
          </mxGeometry>
        </mxCell>
        <object label="Количество" city="sdfsdf" id="fGA4kg8TgEzMYJl1IHVl-77">
          <mxCell style="shape=partialRectangle;overflow=hidden;connectable=0;fillColor=none;top=0;left=0;bottom=0;right=0;align=left;spacingLeft=6;" parent="fGA4kg8TgEzMYJl1IHVl-75" vertex="1">
            <mxGeometry x="30" width="220" height="31" as="geometry">
              <mxRectangle width="220" height="31" as="alternateBounds" />
            </mxGeometry>
          </mxCell>
        </object>
        <mxCell id="fGA4kg8TgEzMYJl1IHVl-91" value="" style="shape=partialRectangle;collapsible=0;dropTarget=0;pointerEvents=0;fillColor=none;points=[[0,0.5],[1,0.5]];portConstraint=eastwest;top=0;left=0;right=0;bottom=0;" parent="fGA4kg8TgEzMYJl1IHVl-71" vertex="1">
          <mxGeometry y="151" width="250" height="31" as="geometry" />
        </mxCell>
        <mxCell id="fGA4kg8TgEzMYJl1IHVl-92" value="" style="shape=partialRectangle;overflow=hidden;connectable=0;fillColor=none;top=0;left=0;bottom=0;right=0;" parent="fGA4kg8TgEzMYJl1IHVl-91" vertex="1">
          <mxGeometry width="30" height="31" as="geometry">
            <mxRectangle width="30" height="31" as="alternateBounds" />
          </mxGeometry>
        </mxCell>
        <object label="Стоимость" city="sdfsdf" id="fGA4kg8TgEzMYJl1IHVl-93">
          <mxCell style="shape=partialRectangle;overflow=hidden;connectable=0;fillColor=none;top=0;left=0;bottom=0;right=0;align=left;spacingLeft=6;" parent="fGA4kg8TgEzMYJl1IHVl-91" vertex="1">
            <mxGeometry x="30" width="220" height="31" as="geometry">
              <mxRectangle width="220" height="31" as="alternateBounds" />
            </mxGeometry>
          </mxCell>
        </object>
      </root>
    </mxGraphModel>
  </diagram>
</mxfile>
